<svg width="722" height="458" viewBox="0 0 722 458" fill="none" xmlns="http://www.w3.org/2000/svg">
<path d="M0 25.0198C0 11.2017 11.2017 0 25.0198 0H696.98C710.798 0 722 11.2017 722 25.0198V432.485C722 446.303 710.798 457.505 696.98 457.505H25.0198C11.2017 457.505 0 446.303 0 432.485V25.0198Z" fill="url(#paint0_linear_18_66)"/>
<path d="M231.326 341.267V358.972H227.003L220.878 343.428H220.466V358.972H217.995V341.267H222.396L228.392 356.81H228.855V341.267H231.326ZM247.247 354.829H240.093L238.986 358.972H236.541L241.122 341.267H246.218L250.798 358.972H248.354L247.247 354.829ZM240.607 352.641H246.732L244.339 343.351H243.001L240.607 352.641ZM260.779 359.23C259.595 359.23 257.999 359.067 255.992 358.741L255.066 358.586L255.323 356.605C257.639 356.913 259.406 357.068 260.624 357.068C262.941 357.068 264.099 356.013 264.099 353.902C264.099 353.319 263.979 352.856 263.738 352.513C263.498 352.152 263.112 351.869 262.58 351.664C262.066 351.44 261.336 351.226 260.393 351.02C259.003 350.694 257.922 350.334 257.15 349.939C256.378 349.528 255.812 349.004 255.452 348.369C255.091 347.735 254.911 346.903 254.911 345.873C254.911 344.243 255.4 343.017 256.378 342.193C257.356 341.37 258.797 340.958 260.702 340.958C261.405 340.958 262.16 341.001 262.966 341.087C263.79 341.172 264.871 341.327 266.209 341.55L266.003 343.557C263.653 343.283 261.954 343.145 260.908 343.145C258.557 343.145 257.382 344.003 257.382 345.719C257.382 346.354 257.511 346.851 257.768 347.211C258.042 347.572 258.471 347.872 259.055 348.112C259.638 348.335 260.521 348.584 261.705 348.858C262.941 349.167 263.901 349.51 264.588 349.888C265.274 350.265 265.771 350.754 266.08 351.355C266.406 351.955 266.569 352.744 266.569 353.722C266.569 355.541 266.072 356.913 265.077 357.84C264.099 358.766 262.666 359.23 260.779 359.23ZM277.325 359.23C276.142 359.23 274.546 359.067 272.539 358.741L271.612 358.586L271.87 356.605C274.186 356.913 275.953 357.068 277.171 357.068C279.487 357.068 280.645 356.013 280.645 353.902C280.645 353.319 280.525 352.856 280.285 352.513C280.045 352.152 279.659 351.869 279.127 351.664C278.612 351.44 277.883 351.226 276.939 351.02C275.55 350.694 274.469 350.334 273.697 349.939C272.925 349.528 272.359 349.004 271.998 348.369C271.638 347.735 271.458 346.903 271.458 345.873C271.458 344.243 271.947 343.017 272.925 342.193C273.903 341.37 275.344 340.958 277.248 340.958C277.952 340.958 278.707 341.001 279.513 341.087C280.336 341.172 281.417 341.327 282.755 341.55L282.55 343.557C280.199 343.283 278.501 343.145 277.454 343.145C275.104 343.145 273.928 344.003 273.928 345.719C273.928 346.354 274.057 346.851 274.314 347.211C274.589 347.572 275.018 347.872 275.601 348.112C276.185 348.335 277.068 348.584 278.252 348.858C279.487 349.167 280.448 349.51 281.134 349.888C281.82 350.265 282.318 350.754 282.627 351.355C282.953 351.955 283.116 352.744 283.116 353.722C283.116 355.541 282.618 356.913 281.623 357.84C280.645 358.766 279.213 359.23 277.325 359.23ZM291.427 343.428V348.936H298.376V351.072H291.427V356.81H299.92V358.972H288.957V341.267H299.92V343.428H291.427ZM305.755 341.267H312.394C314.35 341.267 315.808 341.721 316.769 342.631C317.747 343.54 318.236 344.921 318.236 346.774C318.236 349.382 317.215 351.097 315.173 351.921L318.313 358.972H315.611L312.754 352.436H308.225V358.972H305.755V341.267ZM312.42 350.3C313.501 350.3 314.316 350.008 314.865 349.425C315.431 348.824 315.714 347.958 315.714 346.825C315.714 345.71 315.431 344.861 314.865 344.278C314.316 343.694 313.492 343.403 312.394 343.403H308.225V350.3H312.42ZM336.094 351.612L330.509 341.267H333.263L337.329 349.167L341.369 341.267H344.148L338.564 351.612V358.972H336.094V351.612ZM362.154 359.23C360.97 359.23 359.375 359.067 357.368 358.741L356.441 358.586L356.699 356.605C359.015 356.913 360.782 357.068 362 357.068C364.316 357.068 365.474 356.013 365.474 353.902C365.474 353.319 365.354 352.856 365.114 352.513C364.874 352.152 364.488 351.869 363.956 351.664C363.441 351.44 362.712 351.226 361.768 351.02C360.379 350.694 359.298 350.334 358.526 349.939C357.754 349.528 357.187 349.004 356.827 348.369C356.467 347.735 356.287 346.903 356.287 345.873C356.287 344.243 356.776 343.017 357.754 342.193C358.732 341.37 360.173 340.958 362.077 340.958C362.78 340.958 363.535 341.001 364.342 341.087C365.165 341.172 366.246 341.327 367.584 341.55L367.378 343.557C365.028 343.283 363.329 343.145 362.283 343.145C359.933 343.145 358.757 344.003 358.757 345.719C358.757 346.354 358.886 346.851 359.143 347.211C359.418 347.572 359.847 347.872 360.43 348.112C361.013 348.335 361.897 348.584 363.081 348.858C364.316 349.167 365.277 349.51 365.963 349.888C366.649 350.265 367.147 350.754 367.456 351.355C367.782 351.955 367.945 352.744 367.945 353.722C367.945 355.541 367.447 356.913 366.452 357.84C365.474 358.766 364.041 359.23 362.154 359.23ZM391.175 354.829H384.021L382.914 358.972H380.469L385.05 341.267H390.146L394.726 358.972H392.282L391.175 354.829ZM384.536 352.641H390.66L388.267 343.351H386.929L384.536 352.641ZM409.798 356.785V358.972H399.968V341.267H402.438V356.785H409.798ZM414.805 341.267H417.276V358.972H414.805V341.267Z" fill="#FBF9FC"/>
<g filter="url(#filter0_di_18_66)">
<path fill-rule="evenodd" clip-rule="evenodd" d="M95.345 319.859C95.3451 319.872 95.3452 319.878 95.3462 319.879C95.3473 319.879 95.3495 319.871 95.3539 319.856C95.373 319.79 95.433 319.584 95.6219 319.257C95.8685 318.83 96.2716 318.313 96.8652 317.826C98.0223 316.877 99.9785 315.982 103.09 316.211C115.792 317.143 122.736 325.857 122.736 332.161V372.168C122.736 372.581 122.663 372.734 122.642 372.769C122.6 372.794 122.441 372.866 122.028 372.866H114.306C113.893 372.866 113.734 372.794 113.692 372.769C113.671 372.734 113.598 372.581 113.598 372.168V335.238C113.598 332.612 112.315 330.043 110.474 328.159C108.627 326.268 106.04 324.886 103.213 324.886H95.345V319.859ZM122.651 372.761C122.65 372.762 122.648 372.764 122.646 372.766C122.652 372.762 122.654 372.76 122.654 372.76C122.653 372.76 122.653 372.76 122.651 372.761ZM113.68 372.76C113.681 372.76 113.683 372.762 113.688 372.766C113.682 372.762 113.68 372.76 113.68 372.76ZM103.213 328.245H95.345V372.168C95.345 373.221 95.1558 374.405 94.2612 375.256C93.3861 376.088 92.2222 376.225 91.2783 376.225H83.4152C82.5369 376.225 81.4559 376.058 80.5914 375.305C79.6808 374.511 79.3485 373.37 79.3485 372.168V334.819C79.3485 332.736 80.5151 330.295 82.1526 328.43C83.8124 326.54 86.2706 324.886 89.1713 324.886H91.9855V319.851C91.9855 319.113 92.3017 318.288 92.7129 317.577C93.1568 316.808 93.8211 315.978 94.7347 315.229C96.592 313.705 99.4098 312.572 103.336 312.86C117.312 313.886 126.095 323.651 126.095 332.161V372.168C126.095 373.159 125.872 374.257 125.065 375.097C124.246 375.95 123.127 376.225 122.028 376.225H114.306C113.207 376.225 112.088 375.95 111.269 375.097C110.462 374.257 110.239 373.159 110.239 372.168V335.238C110.239 333.679 109.445 331.913 108.071 330.506C106.704 329.107 104.938 328.245 103.213 328.245ZM89.1713 328.245H91.9855V372.168C91.9855 372.506 91.9533 372.704 91.9248 372.808C91.8145 372.837 91.6149 372.866 91.2783 372.866H83.4152C82.9883 372.866 82.8339 372.791 82.8027 372.774C82.7738 372.725 82.7081 372.563 82.7081 372.168V334.819C82.708 333.824 83.3664 332.139 84.677 330.647C85.9654 329.179 87.5787 328.245 89.1713 328.245ZM82.8159 372.791C82.8155 372.792 82.8115 372.788 82.8052 372.778C82.8133 372.786 82.8164 372.791 82.8159 372.791ZM163.431 381.121C163.431 381.108 163.431 381.101 163.43 381.101C163.429 381.101 163.427 381.108 163.422 381.124C163.403 381.189 163.343 381.395 163.154 381.723C162.908 382.149 162.505 382.666 161.911 383.153C160.754 384.102 158.798 384.997 155.686 384.769C142.984 383.836 136.041 375.123 136.041 368.819V328.812C136.041 328.399 136.114 328.246 136.135 328.211C136.176 328.186 136.335 328.114 136.748 328.114H144.471C144.883 328.114 145.042 328.186 145.084 328.211C145.105 328.246 145.178 328.399 145.178 328.812V365.741C145.178 368.367 146.461 370.937 148.302 372.821C150.149 374.712 152.737 376.094 155.563 376.094H163.431V381.121ZM136.13 328.214C136.125 328.218 136.123 328.22 136.123 328.219C136.123 328.219 136.125 328.217 136.13 328.214ZM145.096 328.219C145.096 328.22 145.093 328.218 145.089 328.214C145.094 328.217 145.096 328.219 145.096 328.219ZM155.563 372.734H163.431V328.812C163.431 327.759 163.62 326.575 164.515 325.724C165.39 324.892 166.554 324.754 167.498 324.754H175.361C176.239 324.754 177.32 324.921 178.185 325.675C179.095 326.469 179.428 327.609 179.428 328.812V366.161C179.428 368.243 178.261 370.685 176.624 372.55C174.964 374.44 172.506 376.094 169.605 376.094H166.791V381.128C166.791 381.867 166.475 382.691 166.063 383.403C165.619 384.172 164.955 385.002 164.042 385.751C162.184 387.274 159.366 388.408 155.44 388.119C141.464 387.093 132.681 377.328 132.681 368.819V328.812C132.681 327.821 132.904 326.723 133.711 325.883C134.53 325.029 135.649 324.754 136.748 324.754H144.471C145.57 324.754 146.688 325.029 147.508 325.883C148.314 326.723 148.537 327.821 148.537 328.812V365.741C148.537 367.3 149.331 369.067 150.705 370.473C152.072 371.873 153.838 372.734 155.563 372.734ZM169.605 372.734H166.791V328.812C166.791 328.473 166.823 328.276 166.851 328.172C166.962 328.143 167.161 328.114 167.498 328.114H175.361C175.788 328.114 175.942 328.188 175.974 328.206C176.002 328.255 176.068 328.416 176.068 328.812V366.161C176.068 367.156 175.41 368.84 174.099 370.333C172.811 371.8 171.198 372.734 169.605 372.734ZM175.963 328.19C175.961 328.189 175.961 328.188 175.96 328.188C175.96 328.189 175.963 328.194 175.971 328.202C175.967 328.196 175.964 328.192 175.963 328.19Z" fill="white"/>
</g>
<circle cx="581.889" cy="86.4971" r="45.7505" fill="#E71924"/>
<circle cx="637.648" cy="86.4971" r="45.7505" fill="#F99F19"/>
<path fill-rule="evenodd" clip-rule="evenodd" d="M609.768 122.595C620.636 114.23 627.64 101.092 627.64 86.3172C627.64 71.5427 620.636 58.404 609.768 50.0396C598.9 58.404 591.897 71.5427 591.897 86.3172C591.897 101.092 598.9 114.23 609.768 122.595Z" fill="#F26520"/>
<rect x="80.4208" y="156.195" width="97.9347" height="69.3406" rx="6.07624" fill="url(#paint1_linear_18_66)" stroke="#211F21" stroke-width="2.14455"/>
<path d="M80.7782 178.713H110.087" stroke="#211F21" stroke-width="2.14455"/>
<path d="M80.7782 200.873H110.445" stroke="#211F21" stroke-width="2.14455"/>
<path d="M149.404 200.873H177.998" stroke="#211F21" stroke-width="2.14455"/>
<path d="M147.974 179.428H177.998" stroke="#211F21" stroke-width="2.14455"/>
<circle cx="129.388" cy="166.56" r="2.14455" fill="#211F21"/>
<path d="M219.053 205.824C224.325 192.589 224.926 185.118 219.053 171.645C218.43 170.215 219.053 169.024 219.768 168.785C220.483 168.547 221.589 168.785 222.27 170.215C229.188 184.73 228.767 192.87 222.627 207.387C221.913 208.817 220.575 208.997 219.768 208.46C218.825 207.831 218.608 206.941 219.053 205.824Z" fill="#FBF9FC"/>
<path d="M211.547 172.717C210.832 173.074 210.375 174.43 211.19 175.934C215.999 185.94 215.801 191.662 211.19 202.026C210.686 203.071 210.998 204.226 211.905 204.528C212.977 204.885 213.913 204.125 214.407 203.098C219.701 192.084 219.841 185.756 214.407 174.147C213.905 173.074 212.62 172.181 211.547 172.717Z" fill="#FBF9FC"/>
<path d="M204.399 177.364C203.327 177.721 203.136 178.907 203.684 180.223C206.53 187.062 206.979 190.897 203.684 197.737C203.042 198.928 202.83 200.192 204.041 200.596C205.253 201 206.126 200.363 206.543 199.524C210.766 191.149 209.82 186.453 206.543 178.078C206.264 177.364 205.471 177.006 204.399 177.364Z" fill="#FBF9FC"/>
<path d="M196.893 180.223C195.821 180.938 195.668 182.022 196.535 183.797C198.344 187.564 198.303 189.68 196.535 193.448C195.714 195.11 195.463 197.022 196.893 197.379C198.323 197.737 198.958 197.229 199.752 195.235C201.578 189.987 201.756 187.02 199.752 181.653C199.291 180.26 198.323 179.508 196.893 180.223Z" fill="#FBF9FC"/>
<path d="M145.115 170.85C142.372 161.508 137.252 156.91 129.031 156.91C119.023 156.91 116.194 164.53 110.087 178.355C113.998 187.507 114.039 192.437 110.087 200.873C116.494 219.254 121.24 224.915 129.388 224.821C140.111 224.821 143.163 215.733 149.047 200.873C145.952 192.498 146.168 187.803 149.047 179.428" stroke="#211F21" stroke-width="2.14455"/>
<defs>
<filter id="filter0_di_18_66" x="73.7493" y="310.016" width="111.278" height="86.5476" filterUnits="userSpaceOnUse" color-interpolation-filters="sRGB">
<feFlood flood-opacity="0" result="BackgroundImageFix"/>
<feColorMatrix in="SourceAlpha" type="matrix" values="0 0 0 0 0 0 0 0 0 0 0 0 0 0 0 0 0 0 127 0" result="hardAlpha"/>
<feOffset dy="2.79962"/>
<feGaussianBlur stdDeviation="2.79962"/>
<feColorMatrix type="matrix" values="0 0 0 0 0.247059 0 0 0 0 0.00784314 0 0 0 0 0.321569 0 0 0 0.8 0"/>
<feBlend mode="normal" in2="BackgroundImageFix" result="effect1_dropShadow_18_66"/>
<feBlend mode="normal" in="SourceGraphic" in2="effect1_dropShadow_18_66" result="shape"/>
<feColorMatrix in="SourceAlpha" type="matrix" values="0 0 0 0 0 0 0 0 0 0 0 0 0 0 0 0 0 0 127 0" result="hardAlpha"/>
<feOffset dx="0.839885" dy="-0.839885"/>
<feGaussianBlur stdDeviation="1.39981"/>
<feComposite in2="hardAlpha" operator="arithmetic" k2="-1" k3="1"/>
<feColorMatrix type="matrix" values="0 0 0 0 0.869975 0 0 0 0 0.596354 0 0 0 0 0.954167 0 0 0 0.5 0"/>
<feBlend mode="normal" in2="shape" result="effect2_innerShadow_18_66"/>
</filter>
<linearGradient id="paint0_linear_18_66" x1="610.09" y1="61.7632" x2="354.521" y2="526.659" gradientUnits="userSpaceOnUse">
<stop stop-color="#A950C4"/>
<stop offset="1" stop-color="#82269E"/>
</linearGradient>
<linearGradient id="paint1_linear_18_66" x1="129.388" y1="155.123" x2="129.388" y2="226.608" gradientUnits="userSpaceOnUse">
<stop stop-color="#EEE9F0"/>
<stop offset="1" stop-color="#D3B5DB"/>
</linearGradient>
</defs>
</svg>
